<svg xmlns="http://www.w3.org/2000/svg" xmlns:xlink="http://www.w3.org/1999/xlink" width="136" zoomAndPan="magnify" viewBox="0 0 102 33.749998" height="45" preserveAspectRatio="xMidYMid meet" version="1.0"><defs><g/><clipPath id="aeccd88c93"><path d="M 4.464844 4.980469 L 28.097656 4.980469 L 28.097656 28.613281 L 4.464844 28.613281 Z M 4.464844 4.980469 " clip-rule="nonzero"/></clipPath><clipPath id="82b43980cf"><path d="M 0.464844 0.980469 L 24.097656 0.980469 L 24.097656 24.613281 L 0.464844 24.613281 Z M 0.464844 0.980469 " clip-rule="nonzero"/></clipPath><clipPath id="051777c608"><rect x="0" width="25" y="0" height="25"/></clipPath><clipPath id="9868ac9872"><rect x="0" width="26" y="0" height="10"/></clipPath></defs><g clip-path="url(#aeccd88c93)"><g transform="matrix(1, 0, 0, 1, 4, 4)"><g clip-path="url(#051777c608)"><g clip-path="url(#82b43980cf)"><path fill="#000000" d="M 0.464844 0.980469 L 24.097656 0.980469 L 24.097656 24.613281 L 0.464844 24.613281 Z M 0.464844 0.980469 " fill-opacity="1" fill-rule="nonzero"/></g></g></g></g><g fill="#ffffff" fill-opacity="1"><g transform="translate(4.910393, 21.863067)"><g><path d="M 5.359375 -4.171875 L 9.9375 -4.171875 L 7.6875 -8.4375 Z M 0.671875 0 L 6.59375 -10.46875 L 8.9375 -10.46875 L 14.9375 0 L 12.203125 0 L 10.953125 -2.28125 L 4.3125 -2.28125 L 3.09375 0 Z M 0.671875 0 "/></g></g><g transform="translate(20.551762, 21.863067)"><g><path d="M 2.671875 0 L 2.671875 -10.46875 L 5.109375 -10.46875 L 5.109375 0 Z M 2.671875 0 "/></g></g></g><g fill="#000000" fill-opacity="1"><g transform="translate(28.338412, 21.863067)"><g><path d="M 2.65625 0 L 2.65625 -10.46875 L 4.3125 -10.46875 L 11.6875 -4.296875 C 11.9375 -4.085938 12.15625 -3.894531 12.34375 -3.71875 C 12.539062 -3.539062 12.71875 -3.351562 12.875 -3.15625 C 12.832031 -3.75 12.804688 -4.164062 12.796875 -4.40625 C 12.785156 -4.644531 12.78125 -4.832031 12.78125 -4.96875 L 12.78125 -10.46875 L 14.96875 -10.46875 L 14.96875 0 L 13.296875 0 L 5.609375 -6.46875 C 5.429688 -6.632812 5.269531 -6.78125 5.125 -6.90625 C 4.988281 -7.039062 4.863281 -7.175781 4.75 -7.3125 C 4.78125 -6.988281 4.800781 -6.679688 4.8125 -6.390625 C 4.832031 -6.109375 4.84375 -5.863281 4.84375 -5.65625 L 4.84375 0 Z M 2.65625 0 "/></g></g><g transform="translate(45.970861, 21.863067)"><g><path d="M 2.671875 0 L 2.671875 -10.46875 L 5.109375 -10.46875 L 5.109375 -6.40625 L 12.71875 -6.40625 L 12.71875 -10.46875 L 15.171875 -10.46875 L 15.171875 0 L 12.71875 0 L 12.71875 -4.5 L 5.109375 -4.5 L 5.109375 0 Z M 2.671875 0 "/></g></g><g transform="translate(63.821239, 21.863067)"><g><path d="M 2.453125 -7.984375 C 2.453125 -8.941406 2.628906 -9.59375 2.984375 -9.9375 C 3.347656 -10.289062 4.035156 -10.46875 5.046875 -10.46875 L 12.75 -10.46875 C 13.769531 -10.46875 14.457031 -10.289062 14.8125 -9.9375 C 15.164062 -9.59375 15.34375 -8.941406 15.34375 -7.984375 L 15.34375 -2.46875 C 15.34375 -1.519531 15.164062 -0.867188 14.8125 -0.515625 C 14.457031 -0.171875 13.769531 0 12.75 0 L 5.046875 0 C 4.035156 0 3.347656 -0.171875 2.984375 -0.515625 C 2.628906 -0.867188 2.453125 -1.519531 2.453125 -2.46875 Z M 4.890625 -1.96875 L 12.921875 -1.96875 L 12.921875 -8.59375 L 4.890625 -8.59375 Z M 4.890625 -1.96875 "/></g></g></g><g fill="#000000" fill-opacity="1"><g transform="translate(81.275383, 21.863067)"><g><path d="M 5.359375 -4.171875 L 9.9375 -4.171875 L 7.6875 -8.4375 Z M 0.671875 0 L 6.59375 -10.46875 L 8.9375 -10.46875 L 14.9375 0 L 12.203125 0 L 10.953125 -2.28125 L 4.3125 -2.28125 L 3.09375 0 Z M 0.671875 0 "/></g></g></g><g transform="matrix(1, 0, 0, 1, 72, 21)"><g clip-path="url(#9868ac9872)"><g fill="#000000" fill-opacity="1"><g transform="translate(0.775863, 7.506078)"><g><path d="M 1.046875 0 L 1.046875 -4.09375 L 2 -4.09375 L 2 -0.765625 L 5.078125 -0.765625 L 5.078125 0 Z M 1.046875 0 "/></g></g></g><g fill="#000000" fill-opacity="1"><g transform="translate(6.060949, 7.506078)"><g><path d="M 2.09375 -1.640625 L 3.890625 -1.640625 L 3 -3.296875 Z M 0.265625 0 L 2.578125 -4.09375 L 3.5 -4.09375 L 5.84375 0 L 4.78125 0 L 4.28125 -0.890625 L 1.6875 -0.890625 L 1.21875 0 Z M 0.265625 0 "/></g></g><g transform="translate(12.183583, 7.506078)"><g><path d="M 4.15625 -3.4375 L 1.984375 -3.4375 L 1.984375 -2.453125 L 4.15625 -2.453125 C 4.320312 -2.453125 4.4375 -2.472656 4.5 -2.515625 C 4.5625 -2.554688 4.59375 -2.632812 4.59375 -2.75 L 4.59375 -3.140625 C 4.59375 -3.242188 4.5625 -3.316406 4.5 -3.359375 C 4.4375 -3.410156 4.320312 -3.4375 4.15625 -3.4375 Z M 4.15625 -1.78125 L 1.984375 -1.78125 L 1.984375 -0.734375 L 4.15625 -0.734375 C 4.34375 -0.734375 4.46875 -0.757812 4.53125 -0.8125 C 4.59375 -0.875 4.625 -0.972656 4.625 -1.109375 L 4.625 -1.421875 C 4.625 -1.554688 4.59375 -1.648438 4.53125 -1.703125 C 4.46875 -1.753906 4.34375 -1.78125 4.15625 -1.78125 Z M 1.046875 0 L 1.046875 -4.09375 L 4.5625 -4.09375 C 4.882812 -4.09375 5.113281 -4.03125 5.25 -3.90625 C 5.394531 -3.78125 5.46875 -3.578125 5.46875 -3.296875 L 5.46875 -2.796875 C 5.46875 -2.597656 5.40625 -2.441406 5.28125 -2.328125 C 5.164062 -2.210938 4.992188 -2.140625 4.765625 -2.109375 C 5.003906 -2.078125 5.1875 -1.992188 5.3125 -1.859375 C 5.4375 -1.722656 5.5 -1.546875 5.5 -1.328125 L 5.5 -0.796875 C 5.5 -0.523438 5.398438 -0.320312 5.203125 -0.1875 C 5.003906 -0.0625 4.703125 0 4.296875 0 Z M 1.046875 0 "/></g></g><g transform="translate(18.488462, 7.506078)"><g><path d="M 4.59375 -3.375 L 1.921875 -3.375 L 1.921875 -2.5 L 4.46875 -2.5 C 4.863281 -2.5 5.128906 -2.429688 5.265625 -2.296875 C 5.410156 -2.160156 5.484375 -1.90625 5.484375 -1.53125 L 5.484375 -0.96875 C 5.484375 -0.59375 5.410156 -0.335938 5.265625 -0.203125 C 5.128906 -0.0664062 4.863281 0 4.46875 0 L 1.9375 0 C 1.539062 0 1.269531 -0.0664062 1.125 -0.203125 C 0.988281 -0.335938 0.921875 -0.59375 0.921875 -0.96875 L 0.921875 -1.078125 L 1.75 -1.25 L 1.75 -0.765625 L 4.65625 -0.765625 L 4.65625 -1.703125 L 2.09375 -1.703125 C 1.695312 -1.703125 1.425781 -1.769531 1.28125 -1.90625 C 1.144531 -2.039062 1.078125 -2.296875 1.078125 -2.671875 L 1.078125 -3.125 C 1.078125 -3.5 1.144531 -3.753906 1.28125 -3.890625 C 1.425781 -4.023438 1.695312 -4.09375 2.09375 -4.09375 L 4.421875 -4.09375 C 4.804688 -4.09375 5.070312 -4.023438 5.21875 -3.890625 C 5.363281 -3.765625 5.4375 -3.535156 5.4375 -3.203125 L 5.4375 -3.109375 L 4.59375 -2.921875 Z M 4.59375 -3.375 "/></g></g></g></g></g></svg>