<svg xmlns="http://www.w3.org/2000/svg" xmlns:xlink="http://www.w3.org/1999/xlink" width="172" zoomAndPan="magnify" viewBox="0 0 129 42.75" height="57" preserveAspectRatio="xMidYMid meet" version="1.0"><defs><g/><clipPath id="eb8d248cde"><path d="M 0.554688 0.308594 L 30.484375 0.308594 L 30.484375 30.238281 L 0.554688 30.238281 Z M 0.554688 0.308594 " clip-rule="nonzero"/></clipPath><clipPath id="f3a4ee9017"><path d="M 0.554688 0.308594 L 30.484375 0.308594 L 30.484375 30.238281 L 0.554688 30.238281 Z M 0.554688 0.308594 " clip-rule="nonzero"/></clipPath><clipPath id="0d7299452c"><rect x="0" width="31" y="0" height="31"/></clipPath><clipPath id="ba546e49df"><path d="M 0.101562 6 L 20 6 L 20 21 L 0.101562 21 Z M 0.101562 6 " clip-rule="nonzero"/></clipPath><clipPath id="31be36f862"><rect x="0" width="117" y="0" height="27"/></clipPath><clipPath id="a895368504"><path d="M 87 21 L 118.257812 21 L 118.257812 32.890625 L 87 32.890625 Z M 87 21 " clip-rule="nonzero"/></clipPath><clipPath id="949e99acfc"><rect x="0" width="32" y="0" height="12"/></clipPath><clipPath id="2d3b1e2fd8"><rect x="0" width="119" y="0" height="33"/></clipPath></defs><g transform="matrix(1, 0, 0, 1, 5, 6)"><g clip-path="url(#2d3b1e2fd8)"><g clip-path="url(#eb8d248cde)"><g transform="matrix(1, 0, 0, 1, -0.000000000000000888, 0.000000000000004441)"><g clip-path="url(#0d7299452c)"><g clip-path="url(#f3a4ee9017)"><path fill="#ffffff" d="M 0.554688 0.308594 L 30.484375 0.308594 L 30.484375 30.238281 L 0.554688 30.238281 Z M 0.554688 0.308594 " fill-opacity="1" fill-rule="nonzero"/></g></g></g></g><g transform="matrix(1, 0, 0, 1, 1, 1)"><g clip-path="url(#31be36f862)"><g clip-path="url(#ba546e49df)"><g fill="#000000" fill-opacity="1"><g transform="translate(0.131518, 20.13945)"><g><path d="M 6.78125 -5.296875 L 12.59375 -5.296875 L 9.734375 -10.6875 Z M 0.859375 0 L 8.359375 -13.25 L 11.328125 -13.25 L 18.921875 0 L 15.46875 0 L 13.875 -2.890625 L 5.46875 -2.890625 L 3.921875 0 Z M 0.859375 0 "/></g></g></g></g><g fill="#000000" fill-opacity="1"><g transform="translate(19.932727, 20.13945)"><g><path d="M 3.390625 0 L 3.390625 -13.25 L 6.46875 -13.25 L 6.46875 0 Z M 3.390625 0 "/></g></g></g><g fill="#ffffff" fill-opacity="1"><g transform="translate(29.791139, 20.13945)"><g><path d="M 3.359375 0 L 3.359375 -13.25 L 5.46875 -13.25 L 14.796875 -5.4375 C 15.117188 -5.1875 15.398438 -4.941406 15.640625 -4.703125 C 15.878906 -4.472656 16.101562 -4.238281 16.3125 -4 C 16.257812 -4.75 16.222656 -5.273438 16.203125 -5.578125 C 16.191406 -5.890625 16.1875 -6.128906 16.1875 -6.296875 L 16.1875 -13.25 L 18.953125 -13.25 L 18.953125 0 L 16.84375 0 L 7.109375 -8.1875 C 6.878906 -8.394531 6.675781 -8.582031 6.5 -8.75 C 6.320312 -8.914062 6.160156 -9.085938 6.015625 -9.265625 C 6.054688 -8.859375 6.085938 -8.472656 6.109375 -8.109375 C 6.128906 -7.742188 6.140625 -7.425781 6.140625 -7.15625 L 6.140625 0 Z M 3.359375 0 "/></g></g></g><g fill="#ffffff" fill-opacity="1"><g transform="translate(52.112951, 20.13945)"><g><path d="M 3.390625 0 L 3.390625 -13.25 L 6.46875 -13.25 L 6.46875 -8.109375 L 16.109375 -8.109375 L 16.109375 -13.25 L 19.21875 -13.25 L 19.21875 0 L 16.109375 0 L 16.109375 -5.703125 L 6.46875 -5.703125 L 6.46875 0 Z M 3.390625 0 "/></g></g></g><g fill="#ffffff" fill-opacity="1"><g transform="translate(74.71065, 20.13945)"><g><path d="M 3.109375 -10.125 C 3.109375 -11.320312 3.332031 -12.140625 3.78125 -12.578125 C 4.238281 -13.023438 5.109375 -13.25 6.390625 -13.25 L 16.15625 -13.25 C 17.445312 -13.25 18.316406 -13.023438 18.765625 -12.578125 C 19.210938 -12.140625 19.4375 -11.320312 19.4375 -10.125 L 19.4375 -3.140625 C 19.4375 -1.921875 19.210938 -1.09375 18.765625 -0.65625 C 18.316406 -0.21875 17.445312 0 16.15625 0 L 6.390625 0 C 5.109375 0 4.238281 -0.21875 3.78125 -0.65625 C 3.332031 -1.09375 3.109375 -1.921875 3.109375 -3.140625 Z M 6.203125 -2.5 L 16.375 -2.5 L 16.375 -10.890625 L 6.203125 -10.890625 Z M 6.203125 -2.5 "/></g></g></g><g fill="#ffffff" fill-opacity="1"><g transform="translate(96.806559, 20.13945)"><g><path d="M 6.78125 -5.296875 L 12.59375 -5.296875 L 9.734375 -10.6875 Z M 0.859375 0 L 8.359375 -13.25 L 11.328125 -13.25 L 18.921875 0 L 15.46875 0 L 13.875 -2.890625 L 5.46875 -2.890625 L 3.921875 0 Z M 0.859375 0 "/></g></g></g></g></g><g clip-path="url(#a895368504)"><g transform="matrix(1, 0, 0, 1, 87, 21)"><g clip-path="url(#949e99acfc)"><g fill="#ffffff" fill-opacity="1"><g transform="translate(0.0633555, 9.284494)"><g><path d="M 1.328125 0 L 1.328125 -5.1875 L 2.53125 -5.1875 L 2.53125 -0.984375 L 6.4375 -0.984375 L 6.4375 0 Z M 1.328125 0 "/></g></g></g><g fill="#ffffff" fill-opacity="1"><g transform="translate(6.756381, 9.284494)"><g><path d="M 2.65625 -2.078125 L 4.9375 -2.078125 L 3.8125 -4.1875 Z M 0.328125 0 L 3.265625 -5.1875 L 4.4375 -5.1875 L 7.421875 0 L 6.0625 0 L 5.4375 -1.140625 L 2.140625 -1.140625 L 1.53125 0 Z M 0.328125 0 "/></g></g><g transform="translate(14.510077, 9.284494)"><g><path d="M 5.265625 -4.34375 L 2.515625 -4.34375 L 2.515625 -3.109375 L 5.265625 -3.109375 C 5.484375 -3.109375 5.628906 -3.132812 5.703125 -3.1875 C 5.785156 -3.25 5.828125 -3.347656 5.828125 -3.484375 L 5.828125 -3.96875 C 5.828125 -4.101562 5.785156 -4.195312 5.703125 -4.25 C 5.628906 -4.3125 5.484375 -4.34375 5.265625 -4.34375 Z M 5.265625 -2.25 L 2.515625 -2.25 L 2.515625 -0.9375 L 5.265625 -0.9375 C 5.492188 -0.9375 5.648438 -0.96875 5.734375 -1.03125 C 5.816406 -1.101562 5.859375 -1.226562 5.859375 -1.40625 L 5.859375 -1.796875 C 5.859375 -1.960938 5.816406 -2.078125 5.734375 -2.140625 C 5.648438 -2.210938 5.492188 -2.25 5.265625 -2.25 Z M 1.328125 0 L 1.328125 -5.1875 L 5.78125 -5.1875 C 6.1875 -5.1875 6.476562 -5.109375 6.65625 -4.953125 C 6.84375 -4.796875 6.9375 -4.539062 6.9375 -4.1875 L 6.9375 -3.546875 C 6.9375 -3.296875 6.859375 -3.097656 6.703125 -2.953125 C 6.554688 -2.804688 6.335938 -2.710938 6.046875 -2.671875 C 6.347656 -2.640625 6.578125 -2.535156 6.734375 -2.359375 C 6.898438 -2.179688 6.984375 -1.957031 6.984375 -1.6875 L 6.984375 -1.015625 C 6.984375 -0.671875 6.851562 -0.414062 6.59375 -0.25 C 6.34375 -0.0820312 5.960938 0 5.453125 0 Z M 1.328125 0 "/></g></g><g transform="translate(22.494566, 9.284494)"><g><path d="M 5.828125 -4.28125 L 2.421875 -4.28125 L 2.421875 -3.171875 L 5.671875 -3.171875 C 6.171875 -3.171875 6.507812 -3.082031 6.6875 -2.90625 C 6.875 -2.726562 6.96875 -2.40625 6.96875 -1.9375 L 6.96875 -1.234375 C 6.96875 -0.753906 6.875 -0.425781 6.6875 -0.25 C 6.507812 -0.0820312 6.171875 0 5.671875 0 L 2.453125 0 C 1.941406 0 1.597656 -0.0820312 1.421875 -0.25 C 1.242188 -0.425781 1.15625 -0.753906 1.15625 -1.234375 L 1.15625 -1.375 L 2.21875 -1.59375 L 2.21875 -0.984375 L 5.890625 -0.984375 L 5.890625 -2.15625 L 2.65625 -2.15625 C 2.15625 -2.15625 1.816406 -2.242188 1.640625 -2.421875 C 1.460938 -2.597656 1.375 -2.921875 1.375 -3.390625 L 1.375 -3.96875 C 1.375 -4.4375 1.460938 -4.753906 1.640625 -4.921875 C 1.816406 -5.097656 2.15625 -5.1875 2.65625 -5.1875 L 5.609375 -5.1875 C 6.097656 -5.1875 6.429688 -5.101562 6.609375 -4.9375 C 6.796875 -4.769531 6.890625 -4.472656 6.890625 -4.046875 L 6.890625 -3.953125 L 5.828125 -3.6875 Z M 5.828125 -4.28125 "/></g></g></g></g></g></g></g></g></svg>